<svg width="14" height="26" viewBox="0 0 14 26" fill="none" xmlns="http://www.w3.org/2000/svg">
<path d="M9.53 25.7679H2.71V13.7893H0V7.865H2.63C2.43 5.18143 2.93 3.22214 4.15 1.885C4.73171 1.29153 5.44042 0.817329 6.23079 0.492744C7.02116 0.168159 7.87578 0.000332182 8.74 0L13.52 0V5.71071H9.76C9.53848 6.40913 9.4538 7.1388 9.51 7.865H13.51V13.7893H9.51L9.53 25.7679ZM4.22 24.375H8V12.3964H12V9.28571H8V8.58C8 6.72286 8 5.06071 9 4.43857L9.19 4.31786H12V1.39286H8.78C8.12565 1.385 7.47682 1.50494 6.87559 1.74489C6.27436 1.98484 5.73416 2.33945 5.29 2.78571C4.29 3.92786 3.88 5.84071 4.19 8.48714L4.29 9.25786H1.5V12.3964H4.22V24.375Z" fill="#192144"/>
</svg>
