<svg width="18" height="18" viewBox="0 0 18 18" fill="none" xmlns="http://www.w3.org/2000/svg">
<path d="M12.9601 1.80063C13.8188 1.80253 14.6418 2.1445 15.249 2.7517C15.8562 3.35891 16.1982 4.18191 16.2001 5.04063V12.9606C16.1982 13.8193 15.8562 14.6423 15.249 15.2495C14.6418 15.8568 13.8188 16.1987 12.9601 16.2006H5.04009C4.18262 16.1968 3.36147 15.854 2.75581 15.247C2.15016 14.64 1.80919 13.8181 1.80729 12.9606V5.04063C1.80919 4.18315 2.15016 3.36123 2.75581 2.75423C3.36147 2.14723 4.18262 1.80443 5.04009 1.80063H12.9601ZM12.9601 0.720627H5.04009C3.89436 0.720627 2.79555 1.17577 1.98539 1.98593C1.17523 2.79608 0.720093 3.89489 0.720093 5.04063L0.720093 12.9606C0.720093 14.1064 1.17523 15.2052 1.98539 16.0153C2.79555 16.8255 3.89436 17.2806 5.04009 17.2806H12.9601C14.1058 17.2806 15.2046 16.8255 16.0148 16.0153C16.8249 15.2052 17.2801 14.1064 17.2801 12.9606V5.04063C17.2801 3.89489 16.8249 2.79608 16.0148 1.98593C15.2046 1.17577 14.1058 0.720627 12.9601 0.720627V0.720627Z" fill="#192144"/>
<path d="M9.00703 5.81735C9.63787 5.81735 10.2545 6.00442 10.7791 6.35489C11.3036 6.70537 11.7124 7.20352 11.9538 7.78634C12.1953 8.36917 12.2584 9.01049 12.1353 9.62921C12.0123 10.2479 11.7085 10.8163 11.2624 11.2623C10.8163 11.7084 10.248 12.0122 9.62929 12.1353C9.01057 12.2583 8.36924 12.1952 7.78642 11.9538C7.2036 11.7123 6.70545 11.3035 6.35497 10.779C6.00449 10.2545 5.81743 9.63779 5.81743 9.00695C5.81648 8.58782 5.89833 8.17263 6.05829 7.78522C6.21824 7.39781 6.45315 7.04582 6.74952 6.74945C7.04589 6.45307 7.39789 6.21817 7.7853 6.05821C8.17271 5.89825 8.5879 5.8164 9.00703 5.81735ZM9.00703 4.73735C8.16228 4.73592 7.33609 4.98512 6.63301 5.4534C5.92993 5.92169 5.38156 6.58801 5.0573 7.36805C4.73304 8.14809 4.64746 9.00679 4.81139 9.83549C4.97532 10.6642 5.38139 11.4256 5.97822 12.0235C6.57504 12.6213 7.3358 13.0287 8.16422 13.194C8.99264 13.3593 9.85148 13.2752 10.6321 12.9522C11.4127 12.6293 12.0799 12.082 12.5494 11.3798C13.0188 10.6775 13.2694 9.85171 13.2694 9.00695C13.2704 8.4466 13.1608 7.89156 12.947 7.37359C12.7333 6.85562 12.4194 6.38489 12.0236 5.98832C11.6277 5.59176 11.1575 5.27715 10.6398 5.06249C10.1222 4.84784 9.56738 4.73735 9.00703 4.73735Z" fill="#192144"/>
<path d="M13.4282 5.55937C13.961 5.55937 14.393 5.12741 14.393 4.59457C14.393 4.06172 13.961 3.62977 13.4282 3.62977C12.8953 3.62977 12.4634 4.06172 12.4634 4.59457C12.4634 5.12741 12.8953 5.55937 13.4282 5.55937Z" fill="#192144"/>
</svg>
