<svg width="22" height="22" viewBox="0 0 22 22" fill="none" xmlns="http://www.w3.org/2000/svg">
<path d="M15.8402 2.20078C16.8897 2.20311 17.8956 2.62107 18.6378 3.36321C19.3799 4.10535 19.7979 5.11124 19.8002 6.16078V15.8408C19.7979 16.8903 19.3799 17.8962 18.6378 18.6384C17.8956 19.3805 16.8897 19.7985 15.8402 19.8008H6.16019C5.11217 19.7961 4.10853 19.3772 3.36829 18.6353C2.62805 17.8934 2.2113 16.8888 2.20899 15.8408V6.16078C2.2113 5.11276 2.62805 4.10819 3.36829 3.3663C4.10853 2.62441 5.11217 2.20543 6.16019 2.20078H15.8402ZM15.8402 0.880783H6.16019C4.75984 0.880783 3.41686 1.43707 2.42666 2.42726C1.43647 3.41745 0.880188 4.76044 0.880188 6.16078L0.880188 15.8408C0.880188 17.2411 1.43647 18.5841 2.42666 19.5743C3.41686 20.5645 4.75984 21.1208 6.16019 21.1208H15.8402C17.2405 21.1208 18.5835 20.5645 19.5737 19.5743C20.5639 18.5841 21.1202 17.2411 21.1202 15.8408V6.16078C21.1202 4.76044 20.5639 3.41745 19.5737 2.42726C18.5835 1.43707 17.2405 0.880783 15.8402 0.880783V0.880783Z" fill="#192144"/>
<path d="M11.0085 7.11009C11.7795 7.11009 12.5333 7.33872 13.1744 7.76708C13.8154 8.19545 14.3151 8.80429 14.6102 9.51663C14.9052 10.229 14.9824 11.0128 14.832 11.769C14.6816 12.5252 14.3103 13.2199 13.7651 13.7651C13.2199 14.3103 12.5253 14.6816 11.7691 14.832C11.0128 14.9824 10.229 14.9052 9.51666 14.6101C8.80432 14.3151 8.19548 13.8154 7.76711 13.1743C7.33875 12.5332 7.11011 11.7795 7.11011 11.0085C7.10895 10.4962 7.209 9.98876 7.4045 9.51526C7.6 9.04176 7.88711 8.61154 8.24934 8.24931C8.61157 7.88708 9.04179 7.59997 9.51529 7.40447C9.98879 7.20897 10.4962 7.10892 11.0085 7.11009ZM11.0085 5.79008C9.97604 5.78834 8.96625 6.09292 8.10693 6.66526C7.24761 7.23761 6.57739 8.052 6.18107 9.00539C5.78475 9.95877 5.68015 11.0083 5.88051 12.0211C6.08087 13.034 6.57718 13.9646 7.30664 14.6953C8.03609 15.426 8.96591 15.9239 9.97842 16.126C10.9909 16.328 12.0406 16.2252 12.9947 15.8305C13.9487 15.4358 14.7643 14.7669 15.338 13.9086C15.9118 13.0502 16.2181 12.041 16.2181 11.0085C16.2193 10.3236 16.0854 9.64523 15.8241 9.01216C15.5628 8.37908 15.1792 7.80374 14.6954 7.31905C14.2115 6.83436 13.6368 6.44984 13.0042 6.18748C12.3715 5.92513 11.6934 5.79008 11.0085 5.79008Z" fill="#192144"/>
<path d="M16.4123 6.79481C17.0635 6.79481 17.5915 6.26686 17.5915 5.61561C17.5915 4.96435 17.0635 4.43641 16.4123 4.43641C15.761 4.43641 15.2331 4.96435 15.2331 5.61561C15.2331 6.26686 15.761 6.79481 16.4123 6.79481Z" fill="#192144"/>
</svg>
