<svg width="226" height="185" viewBox="0 0 226 185" fill="none" xmlns="http://www.w3.org/2000/svg">
<path d="M181.607 114.828C172.827 114.828 164.244 116.885 156.944 120.741C149.643 124.596 143.954 130.076 140.594 136.487C137.234 142.898 136.354 149.953 138.067 156.759C139.78 163.565 144.008 169.817 150.217 174.723C156.425 179.63 164.335 182.972 172.947 184.326C181.558 185.68 190.484 184.985 198.596 182.329C206.707 179.674 213.64 175.177 218.518 169.407C223.396 163.637 226 156.853 226 149.914C226 140.608 221.323 131.684 212.998 125.104C204.672 118.524 193.381 114.828 181.607 114.828V114.828ZM181.607 172.241C176.02 172.241 170.558 170.932 165.912 168.478C161.267 166.025 157.646 162.538 155.508 158.458C153.369 154.378 152.81 149.889 153.9 145.558C154.99 141.227 157.681 137.248 161.631 134.126C165.582 131.003 170.616 128.877 176.096 128.015C181.576 127.154 187.256 127.596 192.418 129.286C197.58 130.976 201.992 133.837 205.096 137.509C208.2 141.181 209.857 145.498 209.857 149.914C209.857 155.835 206.881 161.515 201.583 165.702C196.285 169.889 189.1 172.241 181.607 172.241Z" fill="#545454"/>
<path d="M44.3929 114.828C35.6128 114.828 27.0299 116.885 19.7295 120.741C12.4292 124.596 6.73921 130.076 3.37922 136.487C0.0192349 142.898 -0.859892 149.953 0.853016 156.759C2.56592 163.565 6.79393 169.817 13.0024 174.723C19.2108 179.63 27.1209 182.972 35.7323 184.326C44.3436 185.68 53.2695 184.985 61.3813 182.329C69.493 179.674 76.4262 175.177 81.3042 169.407C86.1821 163.637 88.7857 156.853 88.7857 149.914C88.7857 140.608 84.1086 131.684 75.7834 125.104C67.4581 118.524 56.1666 114.828 44.3929 114.828V114.828ZM44.3929 172.241C38.8055 172.241 33.3437 170.932 28.698 168.478C24.0523 166.025 20.4315 162.538 18.2933 158.458C16.1551 154.378 15.5957 149.889 16.6857 145.558C17.7757 141.227 20.4663 137.248 24.4171 134.126C28.3679 131.003 33.4016 128.877 38.8816 128.015C44.3615 127.154 50.0417 127.596 55.2037 129.286C60.3657 130.976 64.7777 133.837 67.8819 137.509C70.986 141.181 72.6429 145.498 72.6429 149.914C72.6429 155.835 69.6665 161.515 64.3686 165.702C59.0707 169.889 51.8852 172.241 44.3929 172.241V172.241Z" fill="#545454"/>
<path d="M104.929 159.483C104.75 159.483 104.572 159.473 104.396 159.454L43.8602 153.075C43.2142 153.007 42.5987 152.816 42.0663 152.519C41.534 152.222 41.1005 151.827 40.8031 151.369C40.5056 150.911 40.353 150.402 40.3583 149.887C40.3636 149.372 40.5266 148.866 40.8334 148.411L73.1191 100.567C73.4634 100.057 73.9764 99.6308 74.6033 99.3336C75.2302 99.0364 75.9475 98.8794 76.6786 98.8793H153.357V105.259H79.1L50.6926 147.362L103.314 152.906L154.342 106.359L160.444 110.537L107.98 158.382C107.601 158.728 107.132 159.005 106.606 159.195C106.079 159.385 105.507 159.483 104.929 159.483Z" fill="#D1D1CF"/>
<path d="M72.3164 88.0509L64.8976 90.5639L101.219 157.546L108.638 155.033L72.3164 88.0509Z" fill="#D1D1CF"/>
<path d="M177.927 151.222L141.605 87.4284C141.329 86.9427 141.211 86.41 141.262 85.879C141.313 85.348 141.531 84.8355 141.897 84.3884C142.263 83.9412 142.765 83.5736 143.357 83.319C143.949 83.0645 144.612 82.9311 145.286 82.931H181.607C185.889 82.931 189.994 84.2752 193.022 86.6679C196.049 89.0607 197.75 92.3059 197.75 95.6897C197.75 99.0734 196.049 102.319 193.022 104.711C189.994 107.104 185.889 108.448 181.607 108.448H169.5V102.069H181.607C183.748 102.069 185.801 101.397 187.315 100.201C188.828 99.0042 189.679 97.3815 189.679 95.6897C189.679 93.9978 188.828 92.3752 187.315 91.1788C185.801 89.9824 183.748 89.3103 181.607 89.3103H151.525L185.288 148.606L177.927 151.222Z" fill="#D1D1CF"/>
<path d="M104.929 169.052C101.736 169.052 98.6148 168.303 95.9601 166.902C93.3054 165.5 91.2363 163.507 90.0145 161.176C88.7927 158.844 88.473 156.279 89.0959 153.804C89.7188 151.329 91.2562 149.056 93.5138 147.271C95.7715 145.487 98.6478 144.272 101.779 143.78C104.911 143.287 108.156 143.54 111.106 144.506C114.056 145.471 116.577 147.107 118.351 149.205C120.125 151.303 121.071 153.77 121.071 156.293C121.071 159.677 119.371 162.922 116.343 165.315C113.316 167.708 109.21 169.052 104.929 169.052V169.052ZM104.929 149.914C103.332 149.914 101.772 150.288 100.444 150.989C99.117 151.69 98.0824 152.686 97.4715 153.852C96.8606 155.018 96.7008 156.3 97.0122 157.538C97.3237 158.775 98.0924 159.912 99.2212 160.804C100.35 161.696 101.788 162.304 103.354 162.55C104.92 162.796 106.543 162.67 108.017 162.187C109.492 161.704 110.753 160.886 111.64 159.837C112.527 158.788 113 157.555 113 156.293C113 154.601 112.15 152.979 110.636 151.782C109.122 150.586 107.069 149.914 104.929 149.914Z" fill="#D1D1CF"/>
<path d="M169.5 12.7586C169.5 5.71223 162.273 0 153.357 0C144.442 0 137.214 5.71223 137.214 12.7586V22.3276C137.214 29.374 144.442 35.0862 153.357 35.0862C162.273 35.0862 169.5 29.374 169.5 22.3276V12.7586Z" fill="#FEC9A3"/>
<path d="M104.929 159.483L137.214 162.672V156.293L125.107 149.914L105.925 146.88L104.929 159.483Z" fill="#4398D1"/>
<path d="M108.964 108.448L105.925 146.88L125.107 149.914L131.932 106.771C132.3 104.429 131.792 102.053 130.468 99.9385C129.144 97.8236 127.064 96.0623 124.486 94.8731L104.473 85.6454L92.0143 103.09L108.964 108.448Z" fill="#FEC9A3"/>
<path d="M48.4286 77.3332C48.4288 80.8684 49.7691 84.3224 52.2767 87.2498C54.7843 90.1772 58.3442 92.4436 62.4971 93.7567L92.0143 103.09L104.473 85.6454L84.75 76.5517V70.1724H48.4286V77.3332Z" fill="#545454"/>
<path d="M153.357 47.2547C153.357 45.4364 152.865 43.639 151.914 41.9832C150.963 40.3274 149.576 38.8513 147.844 37.6539L134.462 28.4039C130.578 25.7213 125.712 24.0889 120.572 23.7447C115.433 23.4005 110.289 24.3623 105.889 26.4901L63.8773 46.7603C59.1578 49.0401 55.2586 52.24 52.5534 56.053C49.8482 59.8661 48.4279 64.1645 48.4286 68.5361V70.1724H84.75V63.7931L129.143 51.0345L133.179 54.2241V66.9828H153.357V47.2547Z" fill="#4398D1"/>
<path d="M153.357 76.5517V66.9828H133.179V82.1177C133.178 84.1139 134.089 86.0431 135.744 87.5513C137.399 89.0595 139.686 90.0453 142.186 90.3278L177.571 94.3213L181.607 98.8793H193.714V86.1207L153.357 76.5517Z" fill="#FEC9A3"/>
<path d="M145.286 0H153.357C157.638 0 161.744 1.34421 164.772 3.73691C167.799 6.12962 169.5 9.37482 169.5 12.7586H129.143C129.143 9.37482 130.844 6.12962 133.871 3.73691C136.898 1.34421 141.004 0 145.286 0V0Z" fill="#4398D1"/>
</svg>
