<svg width="28" height="18" viewBox="0 0 28 18" fill="none" xmlns="http://www.w3.org/2000/svg">
<path d="M21.6287 17.7497C20.9623 17.7311 20.3127 17.486 19.75 17.041C19.1625 16.5464 18.623 15.9688 18.1423 15.3197C17.7448 14.8247 17.0855 13.9922 16.8326 13.9922C16.5797 13.9922 16.399 15.0272 16.4081 15.7585C16.4119 16.2632 16.2599 16.7505 15.9835 17.1197C15.6693 17.4395 15.2856 17.6353 14.8816 17.6822H13.1474C10.6549 17.6139 8.26825 16.4137 6.43644 14.3072C3.11257 10.516 0.25838 3.27097 0.14096 2.95597C0.0289604 2.69282 -0.017943 2.39423 0.00616964 2.09791C0.0302823 1.80158 0.12433 1.52079 0.276444 1.29097C0.620696 0.933384 1.05664 0.741744 1.50483 0.750974H5.18999H5.29838C5.60329 0.806382 5.89555 0.940495 6.15644 1.14472C6.40195 1.34977 6.59853 1.63348 6.72548 1.96597C7.11492 3.00442 7.56158 4.00807 8.06225 4.96972C9.24548 7.21972 9.76935 7.73722 9.95903 7.84972C10.17 6.79477 10.2281 5.70137 10.1306 4.62097C10.1623 4.12891 10.0972 3.63465 9.94096 3.18097C9.74265 2.98339 9.49916 2.86918 9.24548 2.85472L8.58612 2.07847C8.45967 1.33597 9.11903 0.694723 9.57967 0.447224C10.499 0.0884584 11.4634 -0.0564565 12.4248 0.0197235H13.0661C13.7183 -0.00142958 14.3702 0.0741008 15.0081 0.244724C16.5435 0.649724 16.4893 2.19097 16.4261 3.96847C16.4261 4.48597 16.381 5.09347 16.381 5.79097C16.381 5.95972 16.381 6.13972 16.381 6.33097C16.3454 6.82076 16.3729 7.31446 16.4622 7.79347C17.2142 7.00997 17.8474 6.06505 18.3319 5.00347C18.8548 3.99968 19.3139 2.94647 19.7048 1.85347C19.8239 1.50778 20.028 1.21806 20.2877 1.02601C20.5474 0.833962 20.8493 0.749479 21.15 0.784724H25.0158C25.1299 0.771155 25.2449 0.771155 25.359 0.784724C26.2622 0.784724 26.7952 1.11097 27.0119 1.74097C27.2287 2.37097 27.1655 3.60847 24.8803 6.92722L23.9771 8.19847C23.5395 8.72771 23.1626 9.32964 22.8571 9.98722C23.1992 10.4716 23.5875 10.9023 24.0132 11.2697C25.0513 12.244 25.9649 13.4084 26.7229 14.7235C26.9007 14.9792 27.017 15.2921 27.0585 15.6264C27.1001 15.9607 27.0651 16.3028 26.9577 16.6135C26.7685 16.9576 26.5152 17.2396 26.2195 17.4355C25.9239 17.6314 25.5946 17.7353 25.2597 17.7385L21.8364 17.7947L21.6287 17.7497ZM16.8326 12.3047C17.6455 12.3047 18.35 13.1935 19.0997 14.1272C19.5046 14.678 19.9592 15.1688 20.4545 15.5897C20.829 15.9 21.2692 16.0645 21.719 16.0622H21.8093L25.2416 16.006C25.4109 15.9939 25.5766 15.9403 25.7293 15.8485L25.639 15.6685C24.9553 14.5079 24.1399 13.4772 23.2184 12.6085C22.1435 11.4835 21.5926 10.9547 21.5293 10.0885C21.4661 9.22222 21.9719 8.46847 22.9835 7.03972L23.8868 5.79097C24.6493 4.82219 25.2753 3.70021 25.7384 2.47222C25.5368 2.45734 25.3348 2.45734 25.1332 2.47222H21.1861C21.1147 2.45235 21.0407 2.45235 20.9693 2.47222C20.5513 3.66635 20.0527 4.8142 19.479 5.90347C17.7719 9.07597 16.9681 9.50347 16.399 9.50347C16.2226 9.50347 16.0489 9.44938 15.8932 9.34597C14.99 8.70472 14.99 7.27597 15.0442 6.24097C15.0442 6.07222 15.0442 5.90347 15.0442 5.75722C15.0442 5.02597 15.0442 4.39597 15.0893 3.85597C15.1616 1.96597 15.0893 1.95472 14.7461 1.85347C14.1931 1.71737 13.6297 1.65701 13.0661 1.67347H12.4429C11.8694 1.65871 11.2958 1.69631 10.7268 1.78597C10.8129 1.86507 10.8891 1.95988 10.9526 2.06722C11.3251 2.79885 11.5109 3.65393 11.4855 4.51972C11.6029 6.37597 11.5397 8.79472 10.5823 9.37972C10.4127 9.47854 10.2275 9.52853 10.0403 9.52597C9.20031 9.52597 8.36935 8.53597 6.95128 5.85847C6.40711 4.83327 5.92119 3.76191 5.49709 2.65222L5.42483 2.53972C5.33362 2.48182 5.23632 2.44016 5.1358 2.41597H1.5229H1.45967C1.99257 3.78847 4.52161 9.86347 7.3487 13.0472C8.93619 14.8638 10.993 15.9132 13.1474 16.006H14.8184C14.9036 15.9833 14.9857 15.9454 15.0623 15.8935C15.0623 15.8935 15.0623 15.8935 15.0623 15.7922C15.0623 15.4885 15.0623 12.8672 16.4893 12.4172C16.5998 12.363 16.715 12.3253 16.8326 12.3047Z" fill="#192144"/>
</svg>
